<svg preserveAspectRatio="none" width="100%" height="100%" overflow="visible" style="display: block;" viewBox="0 0 154 15.4901" fill="none" xmlns="http://www.w3.org/2000/svg">
<g id="Treinamentos">
<path d="M9.96219 1.49135L9.64404 3.26108H5.96539L3.83773 15.3112H1.57088L3.69854 3.26108H0L0.318154 1.49135H9.96219Z" fill="var(--fill-0, #0B5E58)"/>
<path d="M15.2605 6.28354C15.7112 5.62072 16.2415 5.10372 16.8513 4.73254C17.4743 4.36136 18.1637 4.17577 18.9193 4.17577L18.5017 6.52216H17.9251C17.0501 6.52216 16.3475 6.74089 15.8173 7.17835C15.287 7.61581 14.9158 8.37142 14.7037 9.44519L13.6697 15.3112H11.4029L13.3317 4.35473H15.5986L15.2605 6.28354Z" fill="var(--fill-0, #0B5E58)"/>
<path d="M27.3064 4.17577C28.6718 4.17577 29.7588 4.56021 30.5675 5.32908C31.3894 6.09795 31.8003 7.13195 31.8003 8.43108C31.8003 8.73598 31.7672 9.10053 31.7009 9.52473C31.6479 9.81637 31.5551 10.1743 31.4225 10.5985H23.0511C23.0378 10.6913 23.0312 10.8305 23.0312 11.0161C23.0312 11.7982 23.2698 12.4213 23.7471 12.8852C24.2375 13.3492 24.8738 13.5812 25.656 13.5812C26.8888 13.5812 27.8367 13.0708 28.4995 12.0501H30.9453C30.4415 13.0576 29.6992 13.8861 28.7182 14.5357C27.7372 15.172 26.6038 15.4901 25.3179 15.4901C24.4032 15.4901 23.6012 15.3112 22.9119 14.9532C22.2226 14.5953 21.6857 14.0849 21.3012 13.4221C20.9168 12.746 20.7246 11.9573 20.7246 11.0558C20.7246 10.6714 20.7644 10.2605 20.8439 9.823C21.0427 8.69621 21.4471 7.7086 22.0569 6.86019C22.6667 5.99853 23.4223 5.33571 24.3237 4.87173C25.2384 4.40776 26.2326 4.17577 27.3064 4.17577ZM29.4341 8.96796C29.4606 8.72935 29.4738 8.55701 29.4738 8.45096C29.4738 7.72186 29.2286 7.14521 28.7381 6.721C28.2609 6.2968 27.6378 6.08469 26.8689 6.08469C26.0603 6.08469 25.3312 6.34319 24.6816 6.86019C24.0321 7.37719 23.588 8.07978 23.3494 8.96796H29.4341Z" fill="var(--fill-0, #0B5E58)"/>
<path d="M37.8291 2.90315C37.4712 2.90315 37.1795 2.79048 36.9542 2.56512C36.7288 2.33976 36.6161 2.05474 36.6161 1.71008C36.6161 1.2461 36.7885 0.848411 37.1331 0.517001C37.4911 0.172334 37.8954 0 38.3461 0C38.704 0 38.989 0.11268 39.2011 0.338039C39.4265 0.563397 39.5392 0.84841 39.5392 1.19308C39.5392 1.65705 39.3668 2.06137 39.0222 2.40604C38.6775 2.73745 38.2798 2.90315 37.8291 2.90315ZM38.6841 4.35473L36.7553 15.3112H34.4885L36.4173 4.35473H38.6841Z" fill="var(--fill-0, #0B5E58)"/>
<path d="M48.8188 4.17577C49.9721 4.17577 50.8868 4.4873 51.5628 5.11035C52.2522 5.72014 52.5968 6.60169 52.5968 7.755C52.5968 8.04664 52.5637 8.41119 52.4974 8.84866L51.3441 15.3112H49.0971L50.1908 9.18669C50.2438 8.81551 50.2703 8.55039 50.2703 8.39131C50.2703 7.66221 50.0649 7.10544 49.6539 6.721C49.2562 6.33657 48.6995 6.14435 47.9836 6.14435C47.1219 6.14435 46.3928 6.40948 45.7963 6.93973C45.213 7.45673 44.8418 8.20572 44.6828 9.18669V9.12704L43.5891 15.3112H41.3223L43.2511 4.35473H45.5179L45.2992 5.62735C45.7499 5.17663 46.2802 4.82533 46.89 4.57346C47.513 4.30833 48.1559 4.17577 48.8188 4.17577Z" fill="var(--fill-0, #0B5E58)"/>
<path d="M56.0451 9.78323C56.244 8.68295 56.6416 7.7086 57.2382 6.86019C57.848 6.01178 58.5903 5.35559 59.4653 4.89162C60.3402 4.41439 61.2549 4.17577 62.2093 4.17577C63.071 4.17577 63.7935 4.3481 64.3768 4.69277C64.9601 5.02418 65.3975 5.44176 65.6891 5.9455L65.9675 4.35473H68.2543L66.3255 15.3112H64.0387L64.337 13.6806C63.8598 14.1976 63.2566 14.6285 62.5275 14.9731C61.8117 15.3178 61.0295 15.4901 60.1811 15.4901C59.3592 15.4901 58.6235 15.3045 57.9739 14.9333C57.3376 14.5622 56.8339 14.0385 56.4627 13.3625C56.1048 12.6731 55.9258 11.8844 55.9258 10.9962C55.9258 10.5985 55.9656 10.1942 56.0451 9.78323ZM65.0131 9.823C65.0661 9.57113 65.0926 9.29937 65.0926 9.00773C65.0926 8.11955 64.8275 7.42359 64.2972 6.91985C63.7802 6.40285 63.1307 6.14435 62.3485 6.14435C61.7653 6.14435 61.1952 6.29017 60.6385 6.58181C60.0817 6.86019 59.5978 7.27777 59.1869 7.83454C58.7759 8.37805 58.5042 9.02762 58.3716 9.78323C58.3186 10.0351 58.2921 10.3069 58.2921 10.5985C58.2921 11.4999 58.5506 12.2158 59.0676 12.746C59.5978 13.263 60.254 13.5215 61.0361 13.5215C61.6194 13.5215 62.1895 13.3757 62.7462 13.0841C63.303 12.7924 63.7869 12.3682 64.1978 11.8115C64.6087 11.2414 64.8805 10.5786 65.0131 9.823Z" fill="var(--fill-0, #0B5E58)"/>
<path d="M86.1253 4.17577C87.2786 4.17577 88.1999 4.4873 88.8892 5.11035C89.5786 5.7334 89.9232 6.61495 89.9232 7.755C89.9232 8.0599 89.8901 8.42445 89.8238 8.84866L88.6705 15.3112H86.4235L87.5172 9.18669C87.5702 8.81551 87.5967 8.55039 87.5967 8.39131C87.5967 7.66221 87.3912 7.10544 86.9803 6.721C86.5826 6.33657 86.0258 6.14435 85.31 6.14435C84.4483 6.14435 83.7192 6.40948 83.1227 6.93973C82.5394 7.45673 82.1682 8.20572 82.0091 9.18669L80.9155 15.3112H78.6685L79.7622 9.18669C79.8152 8.81551 79.8417 8.55039 79.8417 8.39131C79.8417 7.66221 79.6362 7.10544 79.2253 6.721C78.8276 6.33657 78.2708 6.14435 77.555 6.14435C76.6933 6.14435 75.9642 6.40948 75.3677 6.93973C74.7844 7.45673 74.4132 8.20572 74.2541 9.18669V9.12704L73.1605 15.3112H70.8936L72.8224 4.35473H75.0893L74.8706 5.62735C75.308 5.17663 75.8317 4.82533 76.4415 4.57346C77.0645 4.30833 77.7074 4.17577 78.3702 4.17577C79.2452 4.17577 79.9942 4.36136 80.6172 4.73254C81.2535 5.10372 81.6976 5.6406 81.9495 6.34319C82.3869 5.68037 82.9901 5.15674 83.759 4.77231C84.5279 4.37462 85.3166 4.17577 86.1253 4.17577Z" fill="var(--fill-0, #0B5E58)"/>
<path d="M99.827 4.17577C101.192 4.17577 102.279 4.56021 103.088 5.32908C103.91 6.09795 104.321 7.13195 104.321 8.43108C104.321 8.73598 104.288 9.10053 104.222 9.52473C104.168 9.81637 104.076 10.1743 103.943 10.5985H95.5717C95.5584 10.6913 95.5518 10.8305 95.5518 11.0161C95.5518 11.7982 95.7904 12.4213 96.2677 12.8852C96.7581 13.3492 97.3945 13.5812 98.1766 13.5812C99.4094 13.5812 100.357 13.0708 101.02 12.0501H103.466C102.962 13.0576 102.22 13.8861 101.239 14.5357C100.258 15.172 99.1244 15.4901 97.8385 15.4901C96.9238 15.4901 96.1218 15.3112 95.4325 14.9532C94.7432 14.5953 94.2063 14.0849 93.8218 13.4221C93.4374 12.746 93.2452 11.9573 93.2452 11.0558C93.2452 10.6714 93.285 10.2605 93.3645 9.823C93.5633 8.69621 93.9677 7.7086 94.5775 6.86019C95.1873 5.99853 95.9429 5.33571 96.8443 4.87173C97.759 4.40776 98.7532 4.17577 99.827 4.17577ZM101.955 8.96796C101.981 8.72935 101.994 8.55701 101.994 8.45096C101.994 7.72186 101.749 7.14521 101.259 6.721C100.781 6.2968 100.158 6.08469 99.3895 6.08469C98.5809 6.08469 97.8518 6.34319 97.2022 6.86019C96.5527 7.37719 96.1086 8.07978 95.87 8.96796H101.955Z" fill="var(--fill-0, #0B5E58)"/>
<path d="M114.506 4.17577C115.659 4.17577 116.574 4.4873 117.25 5.11035C117.939 5.72014 118.284 6.60169 118.284 7.755C118.284 8.04664 118.251 8.41119 118.184 8.84866L117.031 15.3112H114.784L115.878 9.18669C115.931 8.81551 115.957 8.55039 115.957 8.39131C115.957 7.66221 115.752 7.10544 115.341 6.721C114.943 6.33657 114.386 6.14435 113.67 6.14435C112.809 6.14435 112.08 6.40948 111.483 6.93973C110.9 7.45673 110.529 8.20572 110.37 9.18669V9.12704L109.276 15.3112H107.009L108.938 4.35473H111.205L110.986 5.62735C111.437 5.17663 111.967 4.82533 112.577 4.57346C113.2 4.30833 113.843 4.17577 114.506 4.17577Z" fill="var(--fill-0, #0B5E58)"/>
<path d="M124.695 12.2688C124.668 12.4544 124.655 12.5737 124.655 12.6267C124.655 12.9051 124.741 13.1106 124.913 13.2432C125.086 13.3625 125.371 13.4221 125.769 13.4221H127.16L126.822 15.3112H125.033C124.158 15.3112 123.488 15.1388 123.024 14.7942C122.56 14.4362 122.328 13.8728 122.328 13.104C122.328 12.8123 122.355 12.5339 122.408 12.2688L123.482 6.204H122.189L122.507 4.35473H123.82L124.297 1.63054H126.584L126.107 4.35473H128.751L128.433 6.204H125.769L124.695 12.2688Z" fill="var(--fill-0, #0B5E58)"/>
<path d="M135.295 15.4901C134.367 15.4901 133.551 15.2979 132.849 14.9135C132.146 14.529 131.596 13.9855 131.198 13.2829C130.814 12.5803 130.622 11.7783 130.622 10.8769C130.622 9.64404 130.907 8.51725 131.477 7.4965C132.06 6.47576 132.855 5.66712 133.863 5.07058C134.884 4.47404 136.017 4.17577 137.263 4.17577C138.191 4.17577 139.013 4.37462 139.729 4.77231C140.445 5.15674 141.002 5.70026 141.399 6.40285C141.81 7.09218 142.016 7.89419 142.016 8.80889C142.016 10.0417 141.717 11.1685 141.121 12.1893C140.524 13.21 139.716 14.0187 138.695 14.6152C137.674 15.1985 136.541 15.4901 135.295 15.4901ZM135.573 13.5812C136.329 13.5812 137.018 13.3691 137.641 12.9449C138.277 12.5074 138.774 11.9374 139.132 11.2348C139.49 10.519 139.669 9.75672 139.669 8.94808C139.669 8.03339 139.411 7.3308 138.894 6.84031C138.377 6.33657 137.727 6.08469 136.945 6.08469C136.176 6.08469 135.487 6.30342 134.877 6.74089C134.281 7.16509 133.81 7.74175 133.465 8.47085C133.134 9.18669 132.968 9.95557 132.968 10.7775C132.968 11.6656 133.207 12.355 133.684 12.8455C134.174 13.336 134.804 13.5812 135.573 13.5812Z" fill="var(--fill-0, #0B5E58)"/>
<path d="M148.81 15.4901C148.055 15.4901 147.365 15.3642 146.742 15.1123C146.119 14.8472 145.629 14.4826 145.271 14.0187C144.913 13.5414 144.734 12.9979 144.734 12.3881C144.734 12.2821 144.747 12.1362 144.774 11.9507H146.981C146.928 12.4544 147.08 12.872 147.438 13.2034C147.796 13.5348 148.3 13.7005 148.949 13.7005C149.586 13.7005 150.109 13.5878 150.52 13.3625C150.931 13.1371 151.137 12.8057 151.137 12.3682C151.137 11.9971 150.964 11.6988 150.62 11.4734C150.288 11.2481 149.751 10.9962 149.009 10.7178C148.306 10.4394 147.736 10.1809 147.299 9.94231C146.861 9.70369 146.484 9.37891 146.165 8.96796C145.847 8.54376 145.688 8.02013 145.688 7.39708C145.688 6.76077 145.867 6.204 146.225 5.72677C146.596 5.23628 147.107 4.85848 147.756 4.59335C148.419 4.31496 149.175 4.17577 150.023 4.17577C150.792 4.17577 151.475 4.30833 152.071 4.57346C152.681 4.82533 153.152 5.18989 153.483 5.66712C153.828 6.13109 154 6.66798 154 7.27777C154 7.46336 153.993 7.60255 153.98 7.69535H151.833C151.886 7.17835 151.733 6.76077 151.375 6.44262C151.031 6.12446 150.533 5.96539 149.884 5.96539C149.314 5.96539 148.85 6.08469 148.492 6.32331C148.147 6.56192 147.975 6.88671 147.975 7.29766C147.975 7.7086 148.154 8.04001 148.512 8.29189C148.87 8.5305 149.42 8.79563 150.162 9.08727C150.838 9.3524 151.388 9.60427 151.813 9.84289C152.237 10.0815 152.601 10.3997 152.906 10.7973C153.211 11.195 153.364 11.6922 153.364 12.2887C153.364 12.9383 153.165 13.5083 152.767 13.9988C152.383 14.476 151.846 14.8472 151.156 15.1123C150.467 15.3642 149.685 15.4901 148.81 15.4901Z" fill="var(--fill-0, #0B5E58)"/>
</g>
</svg>
