<svg preserveAspectRatio="none" width="100%" height="100%" overflow="visible" style="display: block;" viewBox="0 0 80 80" fill="none" xmlns="http://www.w3.org/2000/svg">
<g id="Frame 128">
<circle id="Ellipse 1" cx="40" cy="40" r="39" stroke="var(--stroke-0, #0C5E57)" stroke-width="2"/>
<g id="icon-park-outline:certificate">
<path id="Vector" d="M42 55.3333C42.7364 55.3333 43.3333 54.7364 43.3333 54C43.3333 53.2636 42.7364 52.6667 42 52.6667V54V55.3333ZM20 52H18.6667H20ZM22 24V22.6667V24ZM58 24V22.6667V24ZM50 52.6667C49.2636 52.6667 48.6667 53.2636 48.6667 54C48.6667 54.7364 49.2636 55.3333 50 55.3333V54V52.6667ZM28 30.6667C27.2636 30.6667 26.6667 31.2636 26.6667 32C26.6667 32.7364 27.2636 33.3333 28 33.3333V32V30.6667ZM52 33.3333C52.7364 33.3333 53.3333 32.7364 53.3333 32C53.3333 31.2636 52.7364 30.6667 52 30.6667V32V33.3333ZM28 37.6667C27.2636 37.6667 26.6667 38.2636 26.6667 39C26.6667 39.7364 27.2636 40.3333 28 40.3333V39V37.6667ZM34 40.3333C34.7364 40.3333 35.3333 39.7364 35.3333 39C35.3333 38.2636 34.7364 37.6667 34 37.6667V39V40.3333ZM28 44.6667C27.2636 44.6667 26.6667 45.2636 26.6667 46C26.6667 46.7364 27.2636 47.3333 28 47.3333V46V44.6667ZM32 47.3333C32.7364 47.3333 33.3333 46.7364 33.3333 46C33.3333 45.2636 32.7364 44.6667 32 44.6667V46V47.3333ZM52 45H53.3333H52ZM46 58L46.5963 56.8074C46.2209 56.6197 45.7791 56.6197 45.4037 56.8074L46 58ZM50 60L49.4037 61.1926C49.817 61.3992 50.3079 61.3771 50.701 61.1342C51.0941 60.8913 51.3333 60.4621 51.3333 60H50ZM50 49.472H51.3333C51.3333 48.8975 50.9653 48.3876 50.4201 48.2066C49.8748 48.0256 49.2749 48.2142 48.9313 48.6747L50 49.472ZM42 49.5L43.0616 48.6932C42.7152 48.2375 42.1167 48.0537 41.5743 48.2364C41.032 48.4192 40.6667 48.9277 40.6667 49.5H42ZM42 60H40.6667C40.6667 60.4621 40.9059 60.8913 41.299 61.1342C41.6921 61.3771 42.183 61.3992 42.5963 61.1926L42 60ZM42 54V52.6667H22V54V55.3333H42V54ZM22 54V52.6667C21.8232 52.6667 21.6536 52.5964 21.5286 52.4714L20.5858 53.4142L19.643 54.357C20.2681 54.9822 21.116 55.3333 22 55.3333V54ZM20.5858 53.4142L21.5286 52.4714C21.4036 52.3464 21.3333 52.1768 21.3333 52H20H18.6667C18.6667 52.8841 19.0179 53.7319 19.643 54.357L20.5858 53.4142ZM20 52H21.3333V26H20H18.6667V52H20ZM20 26H21.3333C21.3333 25.8232 21.4036 25.6536 21.5286 25.5286L20.5858 24.5858L19.643 23.643C19.0179 24.2681 18.6667 25.1159 18.6667 26H20ZM20.5858 24.5858L21.5286 25.5286C21.6536 25.4036 21.8232 25.3333 22 25.3333V24V22.6667C21.116 22.6667 20.2681 23.0179 19.643 23.643L20.5858 24.5858ZM22 24V25.3333H58V24V22.6667H22V24ZM58 24V25.3333C58.1768 25.3333 58.3464 25.4036 58.4714 25.5286L59.4142 24.5858L60.357 23.643C59.7319 23.0179 58.8841 22.6667 58 22.6667V24ZM59.4142 24.5858L58.4714 25.5286C58.5964 25.6536 58.6667 25.8232 58.6667 26H60H61.3333C61.3333 25.1159 60.9822 24.2681 60.357 23.643L59.4142 24.5858ZM60 26H58.6667V52H60H61.3333V26H60ZM60 52H58.6667C58.6667 52.1768 58.5964 52.3464 58.4714 52.4714L59.4142 53.4142L60.357 54.357C60.9822 53.7319 61.3333 52.8841 61.3333 52H60ZM59.4142 53.4142L58.4714 52.4714C58.3464 52.5964 58.1768 52.6667 58 52.6667V54V55.3333C58.8841 55.3333 59.7319 54.9822 60.357 54.357L59.4142 53.4142ZM58 54V52.6667H50V54V55.3333H58V54ZM28 32V33.3333H52V32V30.6667H28V32ZM28 39V40.3333H34V39V37.6667H28V39ZM28 46V47.3333H32V46V44.6667H28V46ZM46 51V52.3333C47.9449 52.3333 49.8102 51.5607 51.1855 50.1855L50.2427 49.2426L49.2998 48.2998C48.4247 49.175 47.2377 49.6667 46 49.6667V51ZM50.2427 49.2426L51.1855 50.1855C52.5607 48.8102 53.3333 46.9449 53.3333 45H52H50.6667C50.6667 46.2377 50.175 47.4247 49.2998 48.2998L50.2427 49.2426ZM52 45H53.3333C53.3333 43.0551 52.5607 41.1898 51.1855 39.8145L50.2427 40.7574L49.2998 41.7002C50.175 42.5753 50.6667 43.7623 50.6667 45H52ZM50.2427 40.7574L51.1855 39.8145C49.8102 38.4393 47.9449 37.6667 46 37.6667V39V40.3333C47.2377 40.3333 48.4247 40.825 49.2998 41.7002L50.2427 40.7574ZM46 39V37.6667C44.0551 37.6667 42.1898 38.4393 40.8146 39.8145L41.7574 40.7574L42.7002 41.7002C43.5753 40.825 44.7623 40.3333 46 40.3333V39ZM41.7574 40.7574L40.8146 39.8145C39.4393 41.1898 38.6667 43.0551 38.6667 45H40H41.3333C41.3333 43.7623 41.825 42.5753 42.7002 41.7002L41.7574 40.7574ZM40 45H38.6667C38.6667 46.9449 39.4393 48.8102 40.8146 50.1855L41.7574 49.2426L42.7002 48.2998C41.825 47.4247 41.3333 46.2377 41.3333 45H40ZM41.7574 49.2426L40.8146 50.1855C42.1898 51.5607 44.0551 52.3333 46 52.3333V51V49.6667C44.7623 49.6667 43.5753 49.175 42.7002 48.2998L41.7574 49.2426ZM46 58L45.4037 59.1926L49.4037 61.1926L50 60L50.5963 58.8074L46.5963 56.8074L46 58ZM50 60H51.3333V49.472H50H48.6667V60H50ZM50 49.472C48.9313 48.6747 48.9318 48.6741 48.9323 48.6734C48.9324 48.6733 48.9329 48.6726 48.9332 48.6722C48.9338 48.6715 48.9343 48.6707 48.9349 48.6699C48.936 48.6684 48.9371 48.667 48.9381 48.6657C48.9401 48.6631 48.9419 48.6608 48.9434 48.6588C48.9465 48.6549 48.9486 48.6523 48.9496 48.6509C48.9518 48.6482 48.9501 48.6504 48.9444 48.6569C48.9329 48.67 48.9055 48.7 48.8613 48.7417C48.7731 48.8252 48.6188 48.9545 48.3911 49.0899C47.945 49.3552 47.179 49.6667 46 49.6667V51V52.3333C47.681 52.3333 48.915 51.8808 49.7539 51.3821C50.1687 51.1355 50.4782 50.8828 50.6931 50.6798C50.8005 50.5782 50.8845 50.4888 50.9465 50.4184C50.9775 50.3831 51.0031 50.3525 51.0234 50.3274C51.0335 50.3149 51.0424 50.3037 51.0499 50.294C51.0537 50.2891 51.0571 50.2846 51.0602 50.2805C51.0618 50.2785 51.0633 50.2765 51.0647 50.2746C51.0654 50.2737 51.0661 50.2728 51.0668 50.2719C51.0671 50.2715 51.0676 50.2708 51.0677 50.2706C51.0682 50.2699 51.0687 50.2693 50 49.472ZM46 51V49.6667C44.816 49.6667 44.0468 49.3594 43.5996 49.0985C43.3715 48.9653 43.2175 48.8384 43.1297 48.757C43.0858 48.7162 43.0587 48.6871 43.0475 48.6746C43.0419 48.6684 43.0404 48.6664 43.0427 48.6692C43.0439 48.6707 43.0461 48.6733 43.0492 48.6773C43.0508 48.6793 43.0526 48.6816 43.0547 48.6842C43.0557 48.6856 43.0568 48.687 43.0579 48.6885C43.0585 48.6892 43.0591 48.69 43.0597 48.6908C43.06 48.6912 43.0605 48.6918 43.0606 48.692C43.0611 48.6926 43.0616 48.6932 42 49.5C40.9385 50.3068 40.9389 50.3074 40.9394 50.308C40.9396 50.3083 40.9401 50.3089 40.9404 50.3094C40.9411 50.3102 40.9418 50.3111 40.9425 50.3121C40.9439 50.3139 40.9454 50.3159 40.947 50.3179C40.9502 50.322 40.9537 50.3265 40.9575 50.3313C40.9651 50.341 40.9741 50.352 40.9843 50.3645C41.0047 50.3893 41.0305 50.4195 41.0616 50.4543C41.124 50.5239 41.2083 50.6119 41.3159 50.7118C41.5313 50.9116 41.841 51.1597 42.2554 51.4015C43.0933 51.8906 44.324 52.3333 46 52.3333V51ZM42 49.5H40.6667V60H42H43.3333V49.5H42ZM42 60L42.5963 61.1926L46.5963 59.1926L46 58L45.4037 56.8074L41.4037 58.8074L42 60Z" fill="var(--stroke-0, #0C5E57)"/>
</g>
</g>
</svg>
