<svg preserveAspectRatio="none" width="100%" height="100%" overflow="visible" style="display: block;" viewBox="0 0 24 24" fill="none" xmlns="http://www.w3.org/2000/svg">
<g id="Frame 115">
<circle id="Ellipse 1" cx="12" cy="12" r="11.5" stroke="var(--stroke-0, white)"/>
<g id="material-symbols:check-rounded">
<path id="Vector" d="M10.8667 14.1L16.5167 8.45C16.65 8.31667 16.8056 8.25 16.9833 8.25C17.1611 8.25 17.3167 8.31667 17.45 8.45C17.5833 8.58333 17.65 8.74178 17.65 8.92533C17.65 9.10889 17.5833 9.26711 17.45 9.4L11.3333 15.5333C11.2 15.6667 11.0444 15.7333 10.8667 15.7333C10.6889 15.7333 10.5333 15.6667 10.4 15.5333L7.53333 12.6667C7.4 12.5333 7.336 12.3751 7.34133 12.192C7.34667 12.0089 7.41622 11.8504 7.55 11.7167C7.68378 11.5829 7.84222 11.5162 8.02533 11.5167C8.20844 11.5171 8.36667 11.5838 8.5 11.7167L10.8667 14.1Z" fill="var(--fill-0, white)"/>
</g>
</g>
</svg>
