<svg preserveAspectRatio="none" width="100%" height="100%" overflow="visible" style="display: block;" viewBox="0 0 80 80" fill="none" xmlns="http://www.w3.org/2000/svg">
<g id="Frame 129">
<circle id="Ellipse 1" cx="40" cy="40" r="39" stroke="var(--stroke-0, #0C5E57)" stroke-width="2"/>
<g id="lucide:book-open-check">
<path id="Vector" d="M40 58V34.6667M40 58C40 56.6739 39.4732 55.4021 38.5355 54.4645C37.5978 53.5268 36.3261 53 35 53H25C24.558 53 24.134 52.8244 23.8215 52.5118C23.5089 52.1993 23.3333 51.7754 23.3333 51.3333V29.6667C23.3333 29.2246 23.5089 28.8007 23.8215 28.4882C24.134 28.1756 24.558 28 25 28H33.3333C35.1014 28 36.7971 28.7024 38.0474 29.9526C39.2976 31.2029 40 32.8986 40 34.6667M40 58C40 56.6739 40.5268 55.4021 41.4645 54.4645C42.4021 53.5268 43.6739 53 45 53H55C55.442 53 55.8659 52.8244 56.1785 52.5118C56.4911 52.1993 56.6667 51.7754 56.6667 51.3333V49.1667M40 34.6667C40 32.8986 40.7024 31.2029 41.9526 29.9526C43.2029 28.7024 44.8985 28 46.6667 28H55C55.442 28 55.8659 28.1756 56.1785 28.4882C56.4911 28.8007 56.6667 29.2246 56.6667 29.6667V33M46.6667 43L50 46.3333L56.6667 39.6667" stroke="var(--stroke-0, #0C5E57)" stroke-width="3.33333" stroke-linecap="round" stroke-linejoin="round"/>
</g>
</g>
</svg>
