<svg preserveAspectRatio="none" width="100%" height="100%" overflow="visible" style="display: block;" viewBox="0 0 72 72" fill="none" xmlns="http://www.w3.org/2000/svg">
<g id="Frame 109">
<circle id="Ellipse 1" cx="36" cy="36" r="35" stroke="var(--stroke-0, white)" stroke-width="2"/>
<g id="streamline-flex:heart-rate-remix">
<path id="Vector" fill-rule="evenodd" clip-rule="evenodd" d="M51.9977 31.2552C51.9406 27.4445 49.771 23.7353 46.4834 22.212C43.3559 20.7684 39.5813 21.4334 36.072 25.0168C32.7913 21.6655 29.2706 20.8555 26.2436 21.9702C23.0132 23.1622 20.7499 26.4217 20.2492 29.9374C20.2214 30.1338 20.2305 30.3341 20.2759 30.5268C20.3213 30.7195 20.4022 30.9008 20.5138 31.0604C20.7393 31.3828 21.0767 31.5973 21.4517 31.6566C21.8268 31.7159 22.2087 31.6153 22.5135 31.3767C22.8184 31.1382 23.0211 30.7814 23.0772 30.3848C23.4362 27.8338 25.0777 25.602 27.1833 24.8234C29.1608 24.098 31.9683 24.5187 34.9929 28.2062C35.1271 28.3696 35.2928 28.5007 35.479 28.5905C35.6652 28.6803 35.8674 28.7268 36.072 28.7268C36.2766 28.7268 36.4789 28.6803 36.665 28.5905C36.8512 28.5007 37.017 28.3696 37.1511 28.2062C40.3518 24.3035 43.3147 24.0472 45.3357 24.9806C47.519 25.9913 49.0942 28.5737 49.14 31.2915C49.1354 35.523 46.5543 39.5731 43.3879 42.6754C41.9885 44.0531 40.4488 45.2622 38.7972 46.2806C38.214 46.6402 37.6065 46.9538 36.9796 47.2188C36.4447 47.4364 36.1543 47.4824 36.072 47.4824C35.9508 47.4824 35.537 47.4001 34.7963 47.0592C33.9429 46.6494 33.1205 46.1709 32.3364 45.6278C30.2191 44.1724 28.3111 42.4019 26.6711 40.371C26.4271 40.0642 26.0778 39.8724 25.7001 39.838C25.3223 39.8035 24.9471 39.9292 24.657 40.1873C24.3669 40.4454 24.1856 40.8148 24.153 41.2143C24.1204 41.6138 24.2392 42.0107 24.4832 42.3175C26.3058 44.5787 28.4289 46.5481 30.7863 48.1642C31.8128 48.8654 32.7982 49.4337 33.6601 49.8302C34.474 50.2026 35.3404 50.5 36.0743 50.5C36.6847 50.5 37.3683 50.2969 38.0039 50.0406C38.768 49.7224 39.5079 49.3424 40.2169 48.9041C42.0575 47.7704 43.7735 46.4242 45.3334 44.8903C48.7193 41.5704 52 36.7658 52 31.277L51.9977 31.2552ZM31.9843 30.3848C31.8435 30.1237 31.6435 29.9037 31.4024 29.7447C31.1613 29.5856 30.8866 29.4924 30.603 29.4734C30.3194 29.4545 30.0357 29.5104 29.7776 29.6361C29.5195 29.7619 29.295 29.9535 29.1242 30.1937L26.2939 34.1907H21.7147C21.2599 34.1907 20.8238 34.3817 20.5022 34.7218C20.1807 35.0619 20 35.5232 20 36.0042C20 36.4851 20.1807 36.9464 20.5022 37.2865C20.8238 37.6266 21.2599 37.8177 21.7147 37.8177H27.1512C27.4174 37.8177 27.68 37.7521 27.9181 37.6262C28.1562 37.5003 28.3633 37.3175 28.523 37.0923L30.3016 34.58L33.468 40.446C33.609 40.7069 33.8092 40.9267 34.0504 41.0855C34.2916 41.2444 34.5664 41.3373 34.85 41.356C35.1336 41.3747 35.4171 41.3186 35.6751 41.1927C35.9331 41.0668 36.1575 40.875 36.3281 40.6346L39.1607 36.6377H41.6458C42.1005 36.6377 42.5367 36.4466 42.8582 36.1065C43.1798 35.7664 43.3604 35.3052 43.3604 34.8242C43.3604 34.3432 43.1798 33.8819 42.8582 33.5419C42.5367 33.2018 42.1005 33.0107 41.6458 33.0107H38.3011C38.0349 33.0107 37.7723 33.0762 37.5342 33.2021C37.2962 33.3281 37.0891 33.5109 36.9293 33.7361L35.153 36.2484L31.9843 30.3848Z" fill="var(--fill-0, white)"/>
</g>
</g>
</svg>
