<svg preserveAspectRatio="none" width="100%" height="100%" overflow="visible" style="display: block;" viewBox="0 0 80 80" fill="none" xmlns="http://www.w3.org/2000/svg">
<g id="Frame 129">
<circle id="Ellipse 1" cx="40" cy="40" r="39" stroke="var(--stroke-0, #0C5E57)" stroke-width="2"/>
<g id="lucide:user-star">
<path id="Vector" d="M33.3333 45H31.6667C29.8986 45 28.2029 45.7024 26.9526 46.9526C25.7024 48.2029 25 49.8986 25 51.6667V55M46.7517 41.0267C46.8618 40.6889 47.0769 40.3951 47.3658 40.1883C47.6546 39.9814 48.002 39.8722 48.3572 39.8767C48.7124 39.8812 49.057 39.999 49.3405 40.2131C49.624 40.4272 49.8317 40.7262 49.9333 41.0667L51.1617 43.4867C51.2812 43.7219 51.4549 43.9254 51.6684 44.0804C51.882 44.2355 52.1293 44.3376 52.39 44.3783L55.1133 44.805C55.464 44.8064 55.8053 44.9183 56.0887 45.1249C56.3721 45.3315 56.583 45.6222 56.6916 45.9557C56.8002 46.2891 56.8008 46.6483 56.6934 46.9822C56.586 47.316 56.376 47.6074 56.0933 47.815L54.14 49.7617C53.953 49.9479 53.8129 50.1758 53.7312 50.4267C53.6494 50.6776 53.6285 50.9444 53.67 51.205L54.1017 53.8933C54.2204 54.2303 54.2278 54.5965 54.1226 54.9379C54.0174 55.2793 53.8054 55.578 53.5176 55.7897C53.2299 56.0015 52.8817 56.1151 52.5244 56.114C52.1672 56.1128 51.8197 55.9969 51.5333 55.7833L49.0917 54.5333C48.8565 54.4128 48.596 54.35 48.3317 54.35C48.0674 54.35 47.8069 54.4128 47.5717 54.5333L45.13 55.7833C44.8436 55.9952 44.4969 56.1097 44.1407 56.1101C43.7846 56.1105 43.4376 55.9967 43.1508 55.7856C42.8639 55.5744 42.6523 55.2769 42.5469 54.9367C42.4414 54.5964 42.4478 54.2314 42.565 53.895L42.995 51.2067C43.0365 50.9461 43.0156 50.6793 42.9339 50.4284C42.8521 50.1775 42.712 49.9495 42.525 49.7633L40.5983 47.8417C40.3061 47.6392 40.0863 47.3486 39.9709 47.0123C39.8556 46.676 39.8508 46.3116 39.9573 45.9724C40.0638 45.6333 40.276 45.337 40.5628 45.127C40.8497 44.9169 41.1961 44.8041 41.5517 44.805L44.2733 44.3783C44.534 44.3376 44.7813 44.2355 44.9949 44.0804C45.2084 43.9254 45.3821 43.7219 45.5017 43.4867L46.7517 41.0267ZM43.3333 31.6667C43.3333 35.3486 40.3486 38.3333 36.6667 38.3333C32.9848 38.3333 30 35.3486 30 31.6667C30 27.9848 32.9848 25 36.6667 25C40.3486 25 43.3333 27.9848 43.3333 31.6667Z" stroke="var(--stroke-0, #0C5E57)" stroke-width="3.33333" stroke-linecap="round" stroke-linejoin="round"/>
</g>
</g>
</svg>
