<svg preserveAspectRatio="none" width="100%" height="100%" overflow="visible" style="display: block;" viewBox="0 0 24 24" fill="none" xmlns="http://www.w3.org/2000/svg">
<g id="heroicons:map-pin-16-solid">
<path id="Vector" fill-rule="evenodd" clip-rule="evenodd" d="M11.3085 22.2615L11.313 22.266L11.316 22.269C11.5128 22.4182 11.753 22.4989 12 22.4989C12.247 22.4989 12.4872 22.4182 12.684 22.269L12.687 22.266L12.6915 22.2615L12.7095 22.248C12.806 22.1734 12.9011 22.0969 12.9945 22.0185C14.1129 21.0757 15.1404 20.0301 16.0635 18.8955C17.715 16.8525 19.5 13.8825 19.5 10.5C19.5 8.51088 18.7098 6.60322 17.3033 5.1967C15.8968 3.79018 13.9891 3 12 3C10.0109 3 8.10322 3.79018 6.6967 5.1967C5.29018 6.60322 4.5 8.51088 4.5 10.5C4.5 13.8825 6.285 16.8525 7.938 18.8955C8.86114 20.0301 9.88864 21.0757 11.007 22.0185L11.2905 22.248L11.3085 22.2615ZM12 12.75C12.2955 12.75 12.5881 12.6918 12.861 12.5787C13.134 12.4657 13.3821 12.2999 13.591 12.091C13.7999 11.8821 13.9657 11.634 14.0787 11.361C14.1918 11.0881 14.25 10.7955 14.25 10.5C14.25 10.2045 14.1918 9.91195 14.0787 9.63896C13.9657 9.36598 13.7999 9.11794 13.591 8.90901C13.3821 8.70008 13.134 8.53434 12.861 8.42127C12.5881 8.3082 12.2955 8.25 12 8.25C11.4033 8.25 10.831 8.48705 10.409 8.90901C9.98705 9.33097 9.75 9.90326 9.75 10.5C9.75 11.0967 9.98705 11.669 10.409 12.091C10.831 12.5129 11.4033 12.75 12 12.75Z" fill="var(--fill-0, #30AEA5)"/>
</g>
</svg>
