<svg preserveAspectRatio="none" width="100%" height="100%" overflow="visible" style="display: block;" viewBox="0 0 80 80" fill="none" xmlns="http://www.w3.org/2000/svg">
<g id="Frame 129">
<circle id="Ellipse 1" cx="40" cy="40" r="39" stroke="var(--stroke-0, #0C5E57)" stroke-width="2"/>
<g id="ci:wavy-check">
<path id="Vector" d="M46 36.0001L38 44.0001L34 40.0001M42.492 22.9181L44.934 24.9981C45.55 25.5221 46.314 25.8381 47.118 25.9041L50.318 26.1601C51.2276 26.2327 52.0815 26.6268 52.7269 27.2718C53.3723 27.9168 53.7669 28.7706 53.84 29.6801L54.094 32.8801C54.16 33.6861 54.478 34.4521 55.002 35.0661L57.082 37.5061C57.6748 38.2011 58.0004 39.0846 58.0004 39.9981C58.0004 40.9115 57.6748 41.7951 57.082 42.4901L55.002 44.9321C54.478 45.5481 54.16 46.3121 54.096 47.1181L53.84 50.3181C53.7674 51.2276 53.3733 52.0816 52.7283 52.727C52.0833 53.3723 51.2295 53.7669 50.32 53.8401L47.12 54.0961C46.3144 54.1599 45.5494 54.4762 44.934 55.0001L42.492 57.0801C41.797 57.6729 40.9135 57.9985 40 57.9985C39.0865 57.9985 38.203 57.6729 37.508 57.0801L35.068 55.0001C34.4521 54.4758 33.6864 54.1595 32.88 54.0961L29.68 53.8401C28.7702 53.7669 27.9162 53.372 27.2712 52.7262C26.6261 52.0804 26.2322 51.226 26.16 50.3161L25.904 47.1181C25.8392 46.3129 25.5222 45.5487 24.998 44.9341L22.918 42.4901C22.3263 41.7954 22.0013 40.9126 22.0013 40.0001C22.0013 39.0875 22.3263 38.2048 22.918 37.5101L24.998 35.0661C25.524 34.4501 25.838 33.6861 25.902 32.8801L26.158 29.6821C26.2308 28.7716 26.6258 27.9169 27.272 27.2714C27.9183 26.6259 28.7734 26.2319 29.684 26.1601L32.88 25.9061C33.6859 25.8417 34.4509 25.5247 35.066 25.0001L37.508 22.9201C38.203 22.3273 39.0865 22.0016 40 22.0016C40.9135 22.0016 41.797 22.3253 42.492 22.9181Z" stroke="var(--stroke-0, #0C5E57)" stroke-width="4" stroke-linecap="round" stroke-linejoin="round"/>
</g>
</g>
</svg>
