<svg preserveAspectRatio="none" width="100%" height="100%" overflow="visible" style="display: block;" viewBox="0 0 24 24" fill="none" xmlns="http://www.w3.org/2000/svg">
<g id="twemoji:telephone-receiver">
<path id="Vector" d="M19.3389 15.8419L17.7414 14.2443C17.4522 13.9554 17.0901 13.7503 16.6936 13.651C16.297 13.5517 15.881 13.5618 15.4898 13.6804C15.0986 13.799 14.7469 14.0215 14.4722 14.3243C14.1976 14.627 14.0103 14.9987 13.9302 15.3995C11.2958 14.9069 8.73356 12.3553 8.57408 10.0746C9.02202 9.99243 9.43426 9.77564 9.75581 9.45313C10.1793 9.02955 10.4173 8.45507 10.4173 7.85606C10.4173 7.25706 10.1793 6.68258 9.75581 6.25899L8.15869 4.66147C7.73509 4.23793 7.1606 4 6.56158 4C5.96256 4 5.38807 4.23793 4.96447 4.66147C0.172678 9.45313 14.5471 23.8272 19.3389 19.0356C19.7622 18.6119 20 18.0376 20 17.4387C20 16.8399 19.7622 16.2655 19.3389 15.8419Z" fill="var(--fill-0, #30AEA5)"/>
</g>
</svg>
