<svg preserveAspectRatio="none" width="100%" height="100%" overflow="visible" style="display: block;" viewBox="0 0 72 72" fill="none" xmlns="http://www.w3.org/2000/svg">
<g id="Frame 109">
<circle id="Ellipse 1" cx="36" cy="36" r="35" stroke="var(--stroke-0, white)" stroke-width="2"/>
<g id="ri:shield-check-line">
<path id="Vector" d="M36 17.6667L49.695 20.71C50.0651 20.7923 50.3961 20.9983 50.6333 21.294C50.8706 21.5897 50.9999 21.9575 51 22.3367V38.9817C50.9999 40.6279 50.5933 42.2486 49.8165 43.7C49.0396 45.1514 47.9164 46.3886 46.5467 47.3017L36 54.3333L25.4533 47.3017C24.0838 46.3887 22.9608 45.1518 22.1839 43.7008C21.4071 42.2497 21.0004 40.6293 21 38.9833V22.3367C21.0001 21.9575 21.1294 21.5897 21.3666 21.294C21.6039 20.9983 21.9349 20.7923 22.305 20.71L36 17.6667ZM36 21.0817L24.3333 23.6733V38.9817C24.3334 40.0791 24.6043 41.1596 25.1221 42.1271C25.6399 43.0947 26.3886 43.9195 27.3017 44.5283L36 50.3283L44.6983 44.5283C45.6112 43.9197 46.3597 43.0952 46.8775 42.1279C47.3953 41.1606 47.6664 40.0805 47.6667 38.9833V23.6733L36 21.0817ZM43.42 29.7033L45.7783 32.06L35.1717 42.6667L28.1 35.595L30.4567 33.2383L35.17 37.9517L43.42 29.7033Z" fill="var(--fill-0, white)"/>
</g>
</g>
</svg>
