<svg preserveAspectRatio="none" width="100%" height="100%" overflow="visible" style="display: block;" viewBox="0 0 35 35" fill="none" xmlns="http://www.w3.org/2000/svg">
<g id="logos:whatsapp-icon" clip-path="url(#clip0_0_68)">
<path id="Vector" d="M0.74851 17.2905C0.74769 20.2312 1.52199 23.1026 2.99431 25.6334L0.607703 34.2806L9.52528 31.9603C11.9918 33.2927 14.7553 33.9909 17.5636 33.9911H17.5709C26.8416 33.9911 34.3882 26.505 34.3922 17.3037C34.3939 12.845 32.6457 8.65233 29.4695 5.49798C26.2939 2.34391 22.0703 0.605988 17.5703 0.603954C8.29849 0.603954 0.752475 8.08961 0.748647 17.2905" fill="url(#paint0_linear_0_68)"/>
<path id="Vector_2" d="M0.148091 17.2851C0.147134 20.3316 0.949185 23.3057 2.474 25.9271L0.00181581 34.8843L9.23915 32.4808C11.7843 33.8579 14.65 34.5839 17.5659 34.585H17.5734C27.1767 34.585 34.9943 26.8297 34.9984 17.299C35.0001 12.68 33.189 8.33665 29.8993 5.0693C26.6092 1.80236 22.2347 0.0018993 17.5734 7.01485e-08C7.96847 7.01485e-08 0.151919 7.75426 0.148091 17.2851ZM5.64926 25.4757L5.30435 24.9323C3.85445 22.6446 3.08917 20.0009 3.09027 17.2862C3.09328 9.3644 9.59007 2.91938 17.5789 2.91938C21.4476 2.92101 25.0835 4.4176 27.8181 7.13295C30.5526 9.84857 32.0574 13.4585 32.0564 17.2979C32.0528 25.2197 25.5559 31.6655 17.5734 31.6655H17.5677C14.9685 31.6641 12.4193 30.9715 10.1962 29.6625L9.66717 29.3512L4.18555 30.7773L5.64926 25.4757Z" fill="url(#paint1_linear_0_68)"/>
<path id="Vector_3" d="M13.2181 10.0588C12.8919 9.33944 12.5487 9.32492 12.2385 9.31231C11.9845 9.30145 11.6941 9.30227 11.404 9.30227C11.1137 9.30227 10.6419 9.41066 10.2431 9.84273C9.84394 10.2752 8.71913 11.3203 8.71913 13.446C8.71913 15.5716 10.2793 17.626 10.4968 17.9146C10.7146 18.2026 13.5089 22.7043 17.9343 24.4361C21.6122 25.8753 22.3607 25.5891 23.1589 25.5169C23.9573 25.445 25.735 24.4721 26.0977 23.4632C26.4606 22.4544 26.4606 21.5897 26.3518 21.409C26.243 21.229 25.9526 21.1209 25.5172 20.9049C25.0818 20.6889 22.9412 19.6435 22.5421 19.4993C22.1429 19.3553 21.8527 19.2834 21.5623 19.716C21.272 20.1479 20.4382 21.1209 20.1841 21.409C19.9302 21.6978 19.6761 21.7338 19.2408 21.5177C18.8051 21.3009 17.4029 20.8452 15.7394 19.3734C14.445 18.2282 13.5712 16.814 13.3172 16.3814C13.0632 15.9494 13.29 15.7153 13.5083 15.5C13.704 15.3064 13.9439 14.9955 14.1618 14.7433C14.3789 14.491 14.4513 14.3109 14.5965 14.0228C14.7418 13.7344 14.6691 13.4821 14.5604 13.266C14.4513 13.0498 13.6053 10.9131 13.2181 10.0588Z" fill="var(--fill-0, white)"/>
</g>
<defs>
<linearGradient id="paint0_linear_0_68" x1="1689.83" y1="3368.27" x2="1689.83" y2="0.603954" gradientUnits="userSpaceOnUse">
<stop stop-color="#1FAF38"/>
<stop offset="1" stop-color="#60D669"/>
</linearGradient>
<linearGradient id="paint1_linear_0_68" x1="1749.83" y1="3488.43" x2="1749.83" y2="7.01484e-08" gradientUnits="userSpaceOnUse">
<stop stop-color="#F9F9F9"/>
<stop offset="1" stop-color="white"/>
</linearGradient>
<clipPath id="clip0_0_68">
<rect width="35" height="35" fill="white"/>
</clipPath>
</defs>
</svg>
